<svg xmlns="http://www.w3.org/2000/svg" viewBox="229.04 226.51 382.88 143.04">
<path fill="#FFFFFF" d="M384.95 267.79 L377.41 267.79 L359.34 301.91 L368.17 301.91 L379.77 277.42 L382.92 301.91 L391.26 301.91 L384.95 267.79"/>
<path fill="#FFFFFF" d="M404.18 301.91 L396.45 301.91 L402.68 265.91 L410.42 265.91 L404.18 301.91"/>
<path fill="#FFFFFF" d="M419.61 301.91 L411.88 301.91 L418.11 265.91 L425.85 265.91 L419.61 301.91"/>
<path fill="#FFFFFF" d="M464.4 267.79 L456.85 267.79 L438.78 301.91 L447.62 301.91 L459.22 277.42 L462.36 301.91 L470.7 301.91 L464.4 267.79"/>
<path fill="#FFFFFF" d="M477.18 301.91 L480.63 282.04 L477.06 282.04 L478 276.55 L481.56 276.53 L481.87 274.3 C482.26 271.6 483.34 269.45 485.1 267.86 C486.99 266.17 489.45 265.34 492.49 265.37 C493.27 265.37 494.54 265.55 496.31 265.89 L495.72 271.75 C495 271.56 494.39 271.47 493.89 271.47 C492.75 271.47 491.81 271.73 491.07 272.25 C490.33 272.77 489.85 273.52 489.65 274.5 L489.3 276.55 L494.1 276.55 L493.17 282.04 L488.36 282.04 L484.92 301.91 L477.18 301.91"/>
<path fill="#FFFFFF" d="M513.31 283.7 C512.48 283.58 511.68 283.5 510.92 283.47 C508.61 283.41 506.84 284.2 505.62 285.86 L502.76 301.91 L495.05 301.91 L499.46 276.55 L506.65 276.53 L506.07 279.86 C507.72 277.3 509.68 276.02 511.93 276.02 C512.57 276.02 513.36 276.12 514.32 276.34 L513.31 283.7"/>
<path fill="#FFFFFF" d="M520.77 270.16 C520.74 269.02 521.14 268.06 521.98 267.3 C522.81 266.53 523.83 266.15 525.01 266.15 C526.22 266.15 527.22 266.49 528.02 267.18 C528.83 267.87 529.25 268.77 529.28 269.88 C529.31 271.03 528.91 271.99 528.08 272.75 C527.25 273.5 526.24 273.88 525.04 273.88 C523.86 273.88 522.87 273.54 522.05 272.86 C521.23 272.18 520.8 271.28 520.77 270.16 M523.42 301.91 L515.68 301.91 L520.09 276.55 L527.83 276.55 L523.42 301.91"/>
<path fill="#FFFFFF" d="M542.46 296.29 C543.57 296.32 544.44 296.01 545.06 295.37 C545.69 294.73 546.08 293.89 546.26 292.87 L553.48 292.84 C553.38 294.7 552.83 296.37 551.82 297.84 C550.81 299.3 549.46 300.44 547.74 301.25 C546.03 302.05 544.2 302.43 542.25 302.38 C538.87 302.32 536.27 301.1 534.44 298.74 C532.62 296.37 531.87 293.31 532.22 289.56 L532.29 289 C532.57 286.44 533.29 284.17 534.44 282.19 C535.6 280.21 537.12 278.69 539 277.61 C540.89 276.53 542.99 276.02 545.32 276.09 C548.27 276.15 550.6 277.09 552.31 278.91 C554.03 280.73 554.85 283.19 554.79 286.28 L547.57 286.26 C547.65 283.59 546.69 282.23 544.69 282.18 C541.97 282.09 540.4 284.37 540 289.02 L539.79 291.41 L539.76 292.29 C539.76 294.91 540.66 296.24 542.46 296.29"/>
<path fill="#FFFFFF" d="M567.43 296.8 C569.01 296.87 570.39 296.17 571.58 294.72 L572.35 290.64 L570.36 290.62 C569.12 290.65 568.06 291.01 567.17 291.71 C566.28 292.4 565.76 293.35 565.6 294.55 C565.52 295.2 565.64 295.72 565.96 296.14 C566.28 296.55 566.77 296.77 567.43 296.8 M571.84 301.91 C571.62 301.3 571.51 300.54 571.51 299.62 C569.77 301.52 567.7 302.45 565.3 302.38 C563.09 302.35 561.27 301.62 559.81 300.18 C558.36 298.74 557.68 297 557.77 294.95 C557.85 292.2 559 290.09 561.22 288.61 C563.44 287.14 566.47 286.4 570.31 286.4 L572.89 286.45 L573.17 285.02 L573.27 283.77 C573.2 282.35 572.49 281.62 571.13 281.57 C569.45 281.54 568.41 282.47 568.02 284.36 L560.28 284.38 C560.36 282.68 560.91 281.2 561.95 279.94 C562.98 278.68 564.38 277.71 566.15 277.03 C567.93 276.36 569.81 276.04 571.81 276.09 C573.73 276.13 575.42 276.53 576.86 277.29 C578.31 278.05 579.39 279.11 580.11 280.46 C580.83 281.81 581.1 283.37 580.93 285.13 L579.03 297.06 L578.91 298.52 C578.85 299.67 579 300.66 579.36 301.47 L579.34 301.91 L571.84 301.91"/>
<path fill="#FFFFFF" d="M596.31 276.53 L595.78 279.58 C597.81 277.17 600.25 276 603.11 276.06 C605.46 276.11 607.2 276.98 608.35 278.68 C609.5 280.37 609.92 282.8 609.6 285.95 L606.93 301.91 L599.2 301.91 L601.89 285.89 C601.96 285.34 601.97 284.84 601.94 284.39 C601.83 282.9 600.96 282.16 599.31 282.16 C597.96 282.12 596.71 282.73 595.59 283.96 L592.42 301.91 L584.71 301.91 L589.12 276.55 L596.31 276.53"/>
<path fill="#FFFFFF" d="M322.17 239.42 C319.34 236.59 314.8 239.43 311.96 239.29 C310.22 239.21 306.91 237.8 304.95 237.43 C302.42 236.95 299.41 236.28 297.58 238.65 C297.15 239.21 296.79 239.93 296.12 240.15 C295.19 240.46 294.3 239.69 293.54 239.07 C292.1 237.91 290.34 237.15 288.5 236.9 C285.99 236.55 285.21 235.74 284.9 233.29 C284.65 231.38 284.43 229.47 282.23 228.94 C280.42 228.51 273.62 228.61 271.55 228.8 C269.09 229.05 263.83 231.24 261.77 230.69 C260.49 230.36 260.25 229.18 258.11 229.47 C256.16 229.75 248.85 236.4 248.29 238.39 C247.98 239.43 246.69 238.61 246.18 239.43 C245.59 240.35 244.46 243.37 243.49 244.09 C241.56 245.52 235.8 252.48 234.66 254.64 C233.18 257.4 234.78 260.2 234.6 263.11 C234.32 267.35 231.04 270.31 232.61 275.29 C233.19 277.17 234.42 277.14 235.41 278.41 C236.51 279.83 237.06 282.28 238.22 283.81 C239.19 285.1 245.14 290.53 246.59 291.53 C249.9 293.84 250.56 291.64 253.17 291.22 C255.2 290.89 257.14 291.65 259.06 291.53 C262.13 291.33 266.08 289.32 269.27 288.93 C270.44 288.98 270.83 290.86 271.53 291.53 C273.91 293.8 277.75 290.67 279.02 293.92 C279.62 295.44 277.46 300.77 278.02 303.44 C278.53 305.9 284.12 311.19 285.43 313.77 C285.85 315.17 284.76 316.25 284.86 317.6 C284.95 318.92 286.31 320.03 286.41 320.97 C286.55 322.4 283.61 326.91 283.28 328.88 C283.07 330.13 283.07 332.74 283.28 333.97 C283.69 336.42 286.94 339.57 287.57 341.83 C288.09 343.63 287.85 346.05 288.35 347.96 C288.63 349.01 289.29 350.38 290.05 351.8 C289.48 326.84 299.61 263.05 312.99 245.34 C315.89 241.53 319.09 239.63 322.17 239.42"/>
<path fill="#D92F12" fill-rule="evenodd" d="M333.44 322.56 C331.26 323.84 325.7 318.31 324.25 316.52 C316.67 306.96 315.17 294.59 328.84 289.73 C330.09 289.29 331.36 288.92 332.75 288.59 C333.92 294.41 334.83 299.15 335.08 301.21 C335.7 305.18 337.11 320.33 333.44 322.56 M373.46 287.77 C365.63 284.96 357.51 282.99 349.23 281.9 C349.01 281.87 348.8 281.84 348.58 281.81 C348.01 281.74 347.47 281.69 346.97 281.64 C346.13 281.55 345.29 281.5 344.42 281.43 C344.2 280.43 343.94 279.34 343.66 278.18 C343.53 277.62 343.39 277.06 343.25 276.48 C341.11 267.75 337.84 256.34 335.48 251.26 C332.81 245.61 328.84 242.68 324.68 242.95 C322.36 243.1 319.98 244.23 317.73 246.44 C317.06 247.08 316.4 247.84 315.75 248.69 C302.76 265.89 292.93 327.82 293.48 352.05 C293.5 352.74 293.51 353.4 293.55 354.03 C293.62 354.96 293.91 357.96 294.54 360.81 C295.29 364.31 296.53 367.55 298.47 366.4 C297.8 365.41 297.4 364.23 297.18 362.99 C297.1 362.53 297.05 362.07 297.02 361.6 C296.99 361.3 296.98 361 296.97 360.71 C296.95 360.18 296.95 359.64 296.97 359.1 C297.03 357.36 297.24 355.61 297.37 354.09 C299.21 333.25 311.2 278.52 322.2 259.4 C322.56 258.78 322.93 258.2 323.28 257.65 C323.6 257.19 324.01 256.58 324.43 256.03 C325.53 258.71 326.87 263.41 328.24 268.83 C329.28 272.98 330.34 277.54 331.33 281.93 C319.63 283.72 309.42 289.67 309.74 303.98 C310 313.2 316.66 326.4 325.68 331.38 C328.6 333 331.75 333.76 335.02 333.25 C335.52 333.16 336 333.07 336.46 332.93 C347.79 329.86 348.54 312.93 347.2 299.1 C346.77 294.66 346.13 290.54 345.55 287.31 C356.36 287.31 367.18 288.66 377.82 290.5 C378.11 290.55 380.57 290.75 380.57 290.65 C380.23 290.3 379.68 290.13 379.22 289.96 C377.3 289.22 375.39 288.46 373.46 287.77"/>
<path fill="#D92F12" d="M415.53 305.8 L411.73 316.42 L412.96 315.23 C414.39 314 416.82 313.03 418.66 313.82 C421.02 314.83 420.22 318.24 419.63 320.14 C418.5 323.76 417 327.58 415.67 331.15 C415.55 331.48 415.43 331.83 415.25 332.13 L413.33 332.13 C413.43 331.63 413.64 331.13 413.81 330.64 C414.95 327.4 416.22 324.19 417.33 320.94 C417.92 319.19 419.37 315.53 416.36 315.32 C414.05 315.17 411.98 317.28 410.74 319 L405.96 332.13 L404.04 332.13 L413.53 305.8 L415.53 305.8"/>
<path fill="#D92F12" d="M493.95 305.8 L492.93 308.69 L491.01 308.69 L492.06 305.8 L493.95 305.8"/>
<path fill="#D92F12" d="M390.85 323.41 C389.5 323.48 388.03 323.26 386.71 323.53 C385.24 323.83 383.69 324.87 382.82 326.08 C382.02 327.2 380.96 330.03 382.91 330.56 C385.19 331.18 388.3 329.02 389.52 327.19 L390.85 323.41 M388.08 332.13 C388.03 332.1 388.03 332.09 388.03 332.03 C388.03 331.87 388.13 331.46 388.17 331.28 C388.31 330.66 388.53 330.06 388.66 329.44 C388.54 329.41 388.57 329.47 388.54 329.5 C386.94 331.32 383.37 333.38 381 332.02 C378.43 330.55 380.28 326.12 381.76 324.43 C384.27 321.57 387.78 321.52 391.33 321.66 L391.48 321.61 C391.73 320.97 392 320.32 392.22 319.66 C392.65 318.41 393.32 316.4 391.79 315.62 C389.84 314.61 387.15 316.14 386.06 317.79 C385.82 318.14 385.67 318.53 385.46 318.89 L383.66 318.87 C383.6 318.81 383.96 317.99 384.02 317.86 C384.56 316.78 385.48 315.79 386.44 315.09 C390.16 312.37 396.18 313.02 394.51 318.86 C393.37 322.44 391.76 325.98 390.65 329.56 C390.54 329.93 390.41 330.36 390.33 330.74 C390.22 331.19 390.21 331.71 390.03 332.13 L388.08 332.13"/>
<path fill="#D92F12" d="M478.97 323.41 C477.43 323.48 475.78 323.21 474.3 323.65 C472.98 324.05 471.49 325.14 470.76 326.3 C470.03 327.45 469.15 330.12 471.06 330.57 C473.39 331.12 476.35 329.05 477.61 327.21 L478.97 323.41 M476.2 332.13 C476.15 332.1 476.13 332.08 476.13 332.02 C476.13 331.9 476.25 331.44 476.29 331.28 C476.42 330.66 476.61 330.05 476.77 329.44 C476.67 329.42 476.67 329.48 476.63 329.52 C475.68 330.46 474.63 331.33 473.39 331.88 C469.99 333.37 466.98 331.96 468.04 327.93 C468.92 324.61 471.4 322.33 474.81 321.77 C476.36 321.52 477.96 321.75 479.52 321.64 L479.59 321.56 C480.05 320.11 481.59 317.28 480.32 315.95 C479.64 315.24 478.26 315.23 477.37 315.45 C476.15 315.76 474.81 316.75 474.12 317.79 C473.88 318.15 473.76 318.54 473.52 318.89 L471.72 318.87 C471.89 318.19 472.24 317.52 472.63 316.96 C474.29 314.6 478.03 312.72 480.86 313.86 C483.28 314.82 483.06 317.37 482.4 319.43 C481.37 322.63 480 325.79 478.94 328.99 C478.62 329.99 478.34 331 478.21 332.05 L478.14 332.13 L476.2 332.13"/>
<path fill="#D92F12" d="M369.42 321.31 L377.19 321.31 C378.15 319.13 378.69 315.09 375.14 315.32 C373.01 315.46 370.96 317.85 370.07 319.63 C369.97 319.82 369.35 321.24 369.42 321.31 M368.73 323.11 C368.41 324.26 367.9 325.44 367.78 326.63 C367.27 331.66 372.02 331.4 375.01 329.16 C375.1 329.1 375.57 328.65 375.62 328.69 C375.61 329.04 376.03 329.9 375.87 330.17 C375.75 330.38 374.87 331 374.62 331.16 C372.21 332.68 368.1 333.34 366.44 330.45 C364.92 327.82 366.3 324.36 367.21 321.72 C368.17 318.96 369.54 316.61 371.99 314.92 C374.81 312.96 379.32 312.67 379.86 316.95 C380.12 319.03 379.3 321.13 378.65 323.06 L368.73 323.11"/>
<path fill="#D92F12" d="M424.82 321.31 L432.59 321.31 C433.33 319.65 434.05 316.1 431.68 315.43 C428.82 314.62 426.08 318.03 425.13 320.35 C425.08 320.46 424.78 321.27 424.82 321.31 M431.01 328.69 L431.33 330.12 C430.31 331.11 428.97 331.89 427.58 332.22 C422.18 333.51 420.3 329.6 421.6 324.9 C422.64 321.15 423.9 317.43 427.17 315.06 C430.92 312.35 435.87 313.12 435.25 318.64 C435.08 320.17 434.52 321.59 434.09 323.06 L424.2 323.11 C424.13 323.14 424.12 323.2 424.1 323.26 C423.91 323.61 423.65 324.57 423.54 324.99 C423.02 326.87 422.72 329.96 425.18 330.55 C426.88 330.97 428.96 330.24 430.33 329.23 C430.52 329.09 430.72 328.86 430.89 328.74 C430.93 328.71 430.94 328.67 431.01 328.69"/>
<path fill="#D92F12" d="M473.27 307.55 L472.65 309.25 L462.36 309.29 L462.08 309.37 L458.71 318.62 L458.69 318.87 C458.74 318.89 458.8 318.82 458.81 318.82 L467.7 318.82 C467.71 318.82 467.87 318.87 467.82 318.93 L467.21 320.57 L458.01 320.66 L453.82 332.13 L451.97 332.13 L460.76 307.55 L473.27 307.55"/>
<path fill="#D92F12" d="M360.68 307.55 L352.44 330.34 L361.76 330.34 L361.83 330.45 L361.16 332.13 L349.84 332.13 L358.69 307.55 L360.68 307.55"/>
<path fill="#D92F12" d="M403.79 313.88 L406.74 313.88 L406.14 315.6 L403.15 315.63 L398.72 327.8 C398.54 328.51 398.03 329.73 398.6 330.36 C399.06 330.89 400.42 330.55 401.04 330.49 L400.78 331.97 C400.75 332.01 400.28 332.17 400.18 332.2 C397.67 332.89 395.79 332.22 396.31 329.28 C397.59 324.77 399.5 320.45 400.99 316 C401.02 315.93 401.16 315.63 401.02 315.63 L398.75 315.63 L399.34 313.9 L401.78 313.82 L403.52 309.19 L405.36 309.19 C405.4 309.19 405.46 309.29 405.42 309.34 L403.79 313.88"/>
<path fill="#D92F12" d="M442.75 313.88 L442.03 316.62 L443.38 315.13 C444.11 314.52 444.95 313.92 445.89 313.69 C446.57 313.53 447.41 313.46 448.05 313.76 L447.1 315.7 C446.94 315.81 446.2 315.63 445.98 315.63 C444.27 315.56 442.76 316.97 441.78 318.22 C441.12 319.07 440.92 319.59 440.55 320.59 C439.16 324.34 437.89 328.14 436.5 331.9 L436.33 332.13 L434.49 332.13 L441.03 313.88 L442.75 313.88"/>
<path fill="#D92F12" d="M497.6 313.88 L496.88 316.62 C497.16 316.44 497.34 316.08 497.57 315.82 C498.44 314.87 499.57 313.96 500.86 313.67 C501.51 313.53 502.29 313.46 502.89 313.76 L501.99 315.72 C501.46 315.76 500.95 315.58 500.43 315.63 C498.51 315.8 496.91 317.77 495.93 319.27 L491.43 331.83 L491.23 332.13 L489.38 332.13 L495.85 313.88 L497.6 313.88"/>
<path fill="#D92F12" d="M491.06 313.88 L484.49 332.13 L482.64 332.13 L489.11 313.88 L491.06 313.88"/>
</svg>